<svg width="360" height="60" viewBox="0 0 360 60" fill="none" xmlns="http://www.w3.org/2000/svg">
<path d="M0 0.227359H2.37796V32.0576H0V0.227359Z" fill="#679AFF"/>
<path d="M53.9435 32.0576L53.8969 4.82001L40.2352 27.8287H39.0696L25.4079 4.91095V32.0576H23.0766V0.227359H25.0815L39.6757 24.8276L54.2699 0.227359H56.2282L56.2748 32.0576H53.9435Z" fill="#679AFF"/>
<path d="M107.847 32.0576L107.8 4.82001L94.1383 27.8287H92.9726L79.311 4.91095V32.0576H76.9797V0.227359H78.9846L93.5788 24.8276L108.173 0.227359H110.131L110.178 32.0576H107.847Z" fill="#679AFF"/>
<path d="M175.497 16.2789H177.782V28.1925C176.352 29.5263 174.611 30.5419 172.559 31.2391C170.539 31.9363 168.394 32.285 166.125 32.285C162.892 32.285 159.97 31.5877 157.359 30.1933C154.779 28.7988 152.743 26.8738 151.251 24.4183C149.79 21.9629 149.06 19.2042 149.06 16.1425C149.06 13.0807 149.79 10.3221 151.251 7.86662C152.743 5.41114 154.779 3.48617 157.359 2.0917C159.97 0.697234 162.908 0 166.172 0C168.565 0 170.756 0.378932 172.746 1.1368C174.766 1.86434 176.492 2.94051 177.921 4.36529L176.429 5.91133C175.062 4.57749 173.523 3.62259 171.813 3.04661C170.135 2.44032 168.27 2.13717 166.218 2.13717C163.421 2.13717 160.887 2.74346 158.618 3.95604C156.38 5.16863 154.624 6.85108 153.349 9.00341C152.075 11.1254 151.437 13.5051 151.437 16.1425C151.437 18.7495 152.075 21.1292 153.349 23.2815C154.655 25.4036 156.427 27.086 158.665 28.3289C160.903 29.5415 163.421 30.1478 166.218 30.1478C169.948 30.1478 173.041 29.1777 175.497 27.2376V16.2789Z" fill="#679AFF"/>
<path d="M220.232 32.0576L212.446 21.4172C211.296 21.5688 210.239 21.6446 209.275 21.6446H199.95V32.0576H197.572V0.227359H209.275C213.378 0.227359 216.595 1.18227 218.927 3.09208C221.258 4.97158 222.424 7.59379 222.424 10.9587C222.424 13.4748 221.755 15.5968 220.419 17.3247C219.113 19.0224 217.233 20.2198 214.777 20.917L222.937 32.0576H220.232ZM209.275 19.5983C212.757 19.5983 215.414 18.8556 217.248 17.3702C219.082 15.8545 219.999 13.7173 219.999 10.9587C219.999 8.20008 219.082 6.07806 217.248 4.59265C215.414 3.07692 212.757 2.31906 209.275 2.31906H199.95V19.5983H209.275Z" fill="#679AFF"/>
<path d="M254.304 32.285C251.102 32.285 248.211 31.5877 245.631 30.1933C243.051 28.7685 241.015 26.8283 239.523 24.3729C238.062 21.9174 237.332 19.1739 237.332 16.1425C237.332 13.111 238.062 10.3676 239.523 7.91209C241.015 5.45661 243.051 3.53164 245.631 2.13717C248.211 0.712391 251.102 0 254.304 0C257.505 0 260.396 0.697234 262.976 2.0917C265.556 3.48617 267.577 5.41114 269.038 7.86662C270.53 10.3221 271.276 13.0807 271.276 16.1425C271.276 19.2042 270.53 21.9629 269.038 24.4183C267.577 26.8738 265.556 28.7988 262.976 30.1933C260.396 31.5877 257.505 32.285 254.304 32.285ZM254.304 30.1478C257.039 30.1478 259.51 29.5415 261.717 28.3289C263.924 27.1163 265.665 25.449 266.94 23.327C268.214 21.1747 268.851 18.7798 268.851 16.1425C268.851 13.5051 268.214 11.1254 266.94 9.00341C265.665 6.85108 263.924 5.16863 261.717 3.95604C259.51 2.74346 257.039 2.13717 254.304 2.13717C251.568 2.13717 249.082 2.74346 246.843 3.95604C244.636 5.16863 242.896 6.85108 241.621 9.00341C240.347 11.1254 239.71 13.5051 239.71 16.1425C239.71 18.7798 240.347 21.1747 241.621 23.327C242.896 25.449 244.636 27.1163 246.843 28.3289C249.082 29.5415 251.568 30.1478 254.304 30.1478Z" fill="#679AFF"/>
<path d="M301.625 32.285C297.491 32.285 294.273 31.1178 291.973 28.7836C289.704 26.4494 288.569 23.039 288.569 18.5525V0.227359H290.947V18.4615C290.947 22.3721 291.864 25.2975 293.698 27.2376C295.532 29.1777 298.19 30.1478 301.671 30.1478C305.122 30.1478 307.764 29.1777 309.598 27.2376C311.432 25.2975 312.349 22.3721 312.349 18.4615V0.227359H314.727V18.5525C314.727 23.039 313.577 26.4494 311.277 28.7836C308.976 31.1178 305.759 32.285 301.625 32.285Z" fill="#679AFF"/>
<path d="M346.851 0.227359C350.954 0.227359 354.172 1.18227 356.503 3.09208C358.834 4.97158 360 7.59379 360 10.9587C360 14.2933 358.834 16.9155 356.503 18.8253C354.172 20.7048 350.954 21.6446 346.851 21.6446H337.526V32.0576H335.148V0.227359H346.851ZM346.851 19.5529C350.333 19.5529 352.99 18.8102 354.824 17.3247C356.658 15.8393 357.575 13.7173 357.575 10.9587C357.575 8.20008 356.658 6.07806 354.824 4.59265C352.99 3.07692 350.333 2.31906 346.851 2.31906H337.526V19.5529H346.851Z" fill="#679AFF"/>
<path d="M2.66959 47.2534V56.8604H1.03765V47.2534H2.66959Z" fill="#474649"/>
<path d="M12.201 49.9156C13.1307 49.9156 13.8725 50.1809 14.4264 50.7114C14.9802 51.2419 15.2572 51.9508 15.2572 52.8382V56.8604H13.6846V53.0552C13.6846 52.5151 13.5362 52.0955 13.2395 51.7965C12.9527 51.4878 12.5224 51.3335 11.9488 51.3335C11.4147 51.3335 10.9548 51.5216 10.5691 51.8978C10.1833 52.2739 9.99047 52.7707 9.99047 53.388V56.8604H8.41788V50.1037H9.99047V50.7258C10.4652 50.1857 11.2021 49.9156 12.201 49.9156Z" fill="#474649"/>
<path d="M21.333 48.4109H22.9056V50.1037H25.0716V51.4492H22.9056V54.5021C22.9056 55.1772 23.2567 55.5148 23.9589 55.5148H25.0716V56.8604H23.9441C23.0935 56.8604 22.4457 56.6771 22.0006 56.3106C21.5555 55.9344 21.333 55.4184 21.333 54.7625V51.4492H20.0571V50.1037H21.333V48.4109Z" fill="#474649"/>
<path d="M33.342 55.6306C34.0937 55.6306 34.6376 55.3846 34.9739 54.8927H36.68C36.4229 55.5582 35.9926 56.0839 35.3893 56.4697C34.786 56.8556 34.1036 57.0485 33.342 57.0485C32.2837 57.0485 31.4034 56.7109 30.7012 56.0357C29.999 55.3605 29.6479 54.5069 29.6479 53.4748C29.6479 52.462 29.9891 51.618 30.6715 50.9428C31.354 50.258 32.2194 49.9156 33.2678 49.9156C34.2865 49.9156 35.1272 50.2532 35.7899 50.9284C36.4526 51.5939 36.7839 52.4234 36.7839 53.4169C36.7839 53.7256 36.774 53.9281 36.7542 54.0246H31.2798C31.3688 54.5069 31.6013 54.8975 31.9771 55.1965C32.3628 55.4859 32.8178 55.6306 33.342 55.6306ZM33.2678 51.2901C32.7535 51.2901 32.3134 51.4299 31.9474 51.7097C31.5914 51.9797 31.3787 52.3414 31.3095 52.7948H35.1223C35.0432 52.3318 34.8355 51.9653 34.4992 51.6952C34.1728 51.4251 33.7623 51.2901 33.2678 51.2901Z" fill="#474649"/>
<path d="M42.0238 50.1037H43.5964V50.9284C43.7744 50.668 44.0464 50.4557 44.4124 50.2918C44.7882 50.1278 45.2234 50.0458 45.7179 50.0458H46.3559V51.5071H45.7179C45.0454 51.5071 44.5212 51.6952 44.1453 52.0714C43.7794 52.4476 43.5964 52.9539 43.5964 53.5905V56.8604H42.0238V50.1037Z" fill="#474649"/>
<path d="M55.2462 49.9156C56.1759 49.9156 56.9177 50.1809 57.4716 50.7114C58.0254 51.2419 58.3024 51.9508 58.3024 52.8382V56.8604H56.7298V53.0552C56.7298 52.5151 56.5814 52.0955 56.2847 51.7965C55.9979 51.4878 55.5676 51.3335 54.994 51.3335C54.4599 51.3335 54 51.5216 53.6143 51.8978C53.2285 52.2739 53.0357 52.7707 53.0357 53.388V56.8604H51.4631V50.1037H53.0357V50.7258C53.5104 50.1857 54.2473 49.9156 55.2462 49.9156Z" fill="#474649"/>
<path d="M66.6778 49.9156C67.7064 49.9156 68.5322 50.1519 69.1553 50.6245C69.7784 51.0972 70.09 51.7579 70.09 52.6067V56.8604H68.5174V56.2382C67.9932 56.7784 67.2168 57.0485 66.1882 57.0485C65.3376 57.0485 64.6601 56.8556 64.1557 56.4697C63.6612 56.0743 63.4139 55.51 63.4139 54.7769C63.4139 54.2464 63.5672 53.8172 63.8738 53.4893C64.1903 53.1517 64.5711 52.9202 65.0162 52.7948C65.4711 52.6694 65.9904 52.6067 66.5739 52.6067H68.5174C68.5174 52.1727 68.3493 51.8544 68.013 51.6518C67.6767 51.4396 67.2366 51.3335 66.6926 51.3335C65.753 51.3335 65.1645 51.6229 64.9271 52.2016H63.2507C63.4485 51.4685 63.859 50.9043 64.4821 50.5088C65.1151 50.1133 65.847 49.9156 66.6778 49.9156ZM68.5174 54.1982V53.8365H66.5591C65.5107 53.8365 64.9865 54.15 64.9865 54.7769C64.9865 55.0856 65.1151 55.3267 65.3722 55.5004C65.6294 55.6643 65.9854 55.7463 66.4404 55.7463C67.0536 55.7463 67.5531 55.6113 67.9388 55.3412C68.3245 55.0615 68.5174 54.6805 68.5174 54.1982Z" fill="#474649"/>
<path d="M76.179 48.4109H77.7516V50.1037H79.9176V51.4492H77.7516V54.5021C77.7516 55.1772 78.1027 55.5148 78.805 55.5148H79.9176V56.8604H78.7901C77.9395 56.8604 77.2917 56.6771 76.8466 56.3106C76.4016 55.9344 76.179 55.4184 76.179 54.7625V51.4492H74.9032V50.1037H76.179V48.4109Z" fill="#474649"/>
<path d="M85.1277 50.1037H86.7003V56.8604H85.1277V50.1037ZM85.0238 48.7871V47.0364H86.7893V48.7871H85.0238Z" fill="#474649"/>
<path d="M95.6717 49.9156C96.7201 49.9156 97.5955 50.258 98.2977 50.9428C99.0098 51.618 99.3659 52.4668 99.3659 53.4893C99.3659 54.502 99.0098 55.3509 98.2977 56.0357C97.5955 56.7109 96.7201 57.0485 95.6717 57.0485C94.6135 57.0485 93.7283 56.7109 93.0161 56.0357C92.3139 55.3605 91.9628 54.5117 91.9628 53.4893C91.9628 52.4668 92.3139 51.618 93.0161 50.9428C93.7283 50.258 94.6135 49.9156 95.6717 49.9156ZM95.6717 55.6306C96.2948 55.6306 96.8042 55.428 97.1998 55.0229C97.5955 54.6178 97.7933 54.1066 97.7933 53.4893C97.7933 52.8623 97.5955 52.3463 97.1998 51.9412C96.8042 51.536 96.2948 51.3335 95.6717 51.3335C95.0585 51.3335 94.5492 51.5409 94.1437 51.9556C93.7382 52.3607 93.5354 52.872 93.5354 53.4893C93.5354 54.0969 93.7382 54.6081 94.1437 55.0229C94.5492 55.428 95.0585 55.6306 95.6717 55.6306Z" fill="#474649"/>
<path d="M108.397 49.9156C109.327 49.9156 110.069 50.1809 110.622 50.7114C111.176 51.2419 111.453 51.9508 111.453 52.8382V56.8604H109.881V53.0552C109.881 52.5151 109.732 52.0955 109.436 51.7965C109.149 51.4878 108.719 51.3335 108.145 51.3335C107.611 51.3335 107.151 51.5216 106.765 51.8978C106.379 52.2739 106.187 52.7707 106.187 53.388V56.8604H104.614V50.1037H106.187V50.7258C106.661 50.1857 107.398 49.9156 108.397 49.9156Z" fill="#474649"/>
<path d="M119.829 49.9156C120.857 49.9156 121.683 50.1519 122.306 50.6245C122.929 51.0972 123.241 51.7579 123.241 52.6067V56.8604H121.668V56.2382C121.144 56.7784 120.368 57.0485 119.339 57.0485C118.489 57.0485 117.811 56.8556 117.307 56.4697C116.812 56.0743 116.565 55.51 116.565 54.7769C116.565 54.2464 116.718 53.8172 117.025 53.4893C117.341 53.1517 117.722 52.9202 118.167 52.7948C118.622 52.6694 119.141 52.6067 119.725 52.6067H121.668C121.668 52.1727 121.5 51.8544 121.164 51.6518C120.828 51.4396 120.387 51.3335 119.844 51.3335C118.904 51.3335 118.315 51.6229 118.078 52.2016H116.402C116.599 51.4685 117.01 50.9043 117.633 50.5088C118.266 50.1133 118.998 49.9156 119.829 49.9156ZM121.668 54.1982V53.8365H119.71C118.662 53.8365 118.137 54.15 118.137 54.7769C118.137 55.0856 118.266 55.3267 118.523 55.5004C118.78 55.6643 119.136 55.7463 119.591 55.7463C120.205 55.7463 120.704 55.6113 121.09 55.3412C121.475 55.0615 121.668 54.6805 121.668 54.1982Z" fill="#474649"/>
<path d="M128.766 47.1811H130.339V56.8604H128.766V47.1811Z" fill="#474649"/>
<path d="M144.663 47.2534L148.61 55.0952L152.556 47.2534H154.425V56.8604H152.793V50.1905L149.44 56.8604H147.734L144.381 50.1905V56.8604H142.75V47.2534H144.663Z" fill="#474649"/>
<path d="M163.434 55.6306C164.186 55.6306 164.729 55.3846 165.066 54.8927H166.772C166.515 55.5582 166.084 56.0839 165.481 56.4697C164.878 56.8556 164.195 57.0485 163.434 57.0485C162.376 57.0485 161.495 56.7109 160.793 56.0357C160.091 55.3605 159.74 54.5069 159.74 53.4748C159.74 52.462 160.081 51.618 160.763 50.9428C161.446 50.258 162.311 49.9156 163.36 49.9156C164.378 49.9156 165.219 50.2532 165.882 50.9284C166.544 51.5939 166.876 52.4234 166.876 53.4169C166.876 53.7256 166.866 53.9281 166.846 54.0246H161.372C161.461 54.5069 161.693 54.8975 162.069 55.1965C162.455 55.4859 162.91 55.6306 163.434 55.6306ZM163.36 51.2901C162.845 51.2901 162.405 51.4299 162.039 51.7097C161.683 51.9797 161.471 52.3414 161.401 52.7948H165.214C165.135 52.3318 164.927 51.9653 164.591 51.6952C164.265 51.4251 163.854 51.2901 163.36 51.2901Z" fill="#474649"/>
<path d="M177.397 47.1811H178.97V56.8604H177.397V56.2382C176.873 56.7784 176.146 57.0485 175.216 57.0485C174.138 57.0485 173.278 56.7012 172.635 56.0067C172.002 55.3026 171.685 54.4635 171.685 53.4893C171.685 52.5054 172.002 51.6663 172.635 50.9718C173.278 50.2677 174.138 49.9156 175.216 49.9156C176.146 49.9156 176.873 50.1857 177.397 50.7258V47.1811ZM176.819 55.0808C177.244 54.7046 177.457 54.1741 177.457 53.4893C177.457 52.8044 177.244 52.2739 176.819 51.8978C176.403 51.5216 175.904 51.3335 175.32 51.3335C174.717 51.3335 174.222 51.5457 173.837 51.9701C173.451 52.3849 173.258 52.8912 173.258 53.4893C173.258 54.0776 173.451 54.584 173.837 55.0084C174.222 55.4232 174.717 55.6306 175.32 55.6306C175.904 55.6306 176.403 55.4473 176.819 55.0808Z" fill="#474649"/>
<path d="M184.671 50.1037H186.243V56.8604H184.671V50.1037ZM184.567 48.7871V47.0364H186.332V48.7871H184.567Z" fill="#474649"/>
<path d="M198.508 52.2016H196.861C196.495 51.6229 195.932 51.3335 195.17 51.3335C194.557 51.3335 194.052 51.536 193.657 51.9412C193.271 52.3463 193.078 52.8575 193.078 53.4748C193.078 54.0921 193.271 54.6081 193.657 55.0229C194.052 55.428 194.557 55.6306 195.17 55.6306C195.932 55.6306 196.495 55.3412 196.861 54.7625H198.508C198.251 55.4666 197.821 56.026 197.217 56.4408C196.624 56.8459 195.942 57.0485 195.17 57.0485C194.132 57.0485 193.261 56.7109 192.559 56.0357C191.857 55.3509 191.506 54.4972 191.506 53.4748C191.506 52.462 191.857 51.618 192.559 50.9428C193.261 50.258 194.132 49.9156 195.17 49.9156C195.942 49.9156 196.624 50.123 197.217 50.5377C197.821 50.9428 198.251 51.4975 198.508 52.2016Z" fill="#474649"/>
<path d="M206.542 49.9156C207.571 49.9156 208.397 50.1519 209.02 50.6245C209.643 51.0972 209.954 51.7579 209.954 52.6067V56.8604H208.382V56.2382C207.858 56.7784 207.081 57.0485 206.053 57.0485C205.202 57.0485 204.524 56.8556 204.02 56.4697C203.525 56.0743 203.278 55.51 203.278 54.7769C203.278 54.2464 203.432 53.8172 203.738 53.4893C204.055 53.1517 204.435 52.9202 204.88 52.7948C205.335 52.6694 205.855 52.6067 206.438 52.6067H208.382C208.382 52.1727 208.214 51.8544 207.877 51.6518C207.541 51.4396 207.101 51.3335 206.557 51.3335C205.617 51.3335 205.029 51.6229 204.791 52.2016H203.115C203.313 51.4685 203.723 50.9043 204.346 50.5088C204.979 50.1133 205.711 49.9156 206.542 49.9156ZM208.382 54.1982V53.8365H206.423C205.375 53.8365 204.851 54.15 204.851 54.7769C204.851 55.0856 204.979 55.3267 205.237 55.5004C205.494 55.6643 205.85 55.7463 206.305 55.7463C206.918 55.7463 207.417 55.6113 207.803 55.3412C208.189 55.0615 208.382 54.6805 208.382 54.1982Z" fill="#474649"/>
<path d="M215.48 47.1811H217.052V56.8604H215.48V47.1811Z" fill="#474649"/>
<path d="M231.377 47.2534L235.323 55.0952L239.269 47.2534H241.139V56.8604H239.507V50.1905L236.154 56.8604H234.448L231.095 50.1905V56.8604H229.463V47.2534H231.377Z" fill="#474649"/>
<path d="M249.747 49.9156C250.775 49.9156 251.601 50.1519 252.224 50.6245C252.847 51.0972 253.159 51.7579 253.159 52.6067V56.8604H251.586V56.2382C251.062 56.7784 250.286 57.0485 249.257 57.0485C248.407 57.0485 247.729 56.8556 247.225 56.4697C246.73 56.0743 246.483 55.51 246.483 54.7769C246.483 54.2464 246.636 53.8172 246.943 53.4893C247.259 53.1517 247.64 52.9202 248.085 52.7948C248.54 52.6694 249.059 52.6067 249.643 52.6067H251.586C251.586 52.1727 251.418 51.8544 251.082 51.6518C250.746 51.4396 250.305 51.3335 249.762 51.3335C248.822 51.3335 248.233 51.6229 247.996 52.2016H246.32C246.517 51.4685 246.928 50.9043 247.551 50.5088C248.184 50.1133 248.916 49.9156 249.747 49.9156ZM251.586 54.1982V53.8365H249.628C248.58 53.8365 248.055 54.15 248.055 54.7769C248.055 55.0856 248.184 55.3267 248.441 55.5004C248.698 55.6643 249.054 55.7463 249.509 55.7463C250.122 55.7463 250.622 55.6113 251.008 55.3412C251.393 55.0615 251.586 54.6805 251.586 54.1982Z" fill="#474649"/>
<path d="M262.467 49.9156C263.397 49.9156 264.139 50.1809 264.693 50.7114C265.247 51.2419 265.523 51.9508 265.523 52.8382V56.8604H263.951V53.0552C263.951 52.5151 263.803 52.0955 263.506 51.7965C263.219 51.4878 262.789 51.3335 262.215 51.3335C261.681 51.3335 261.221 51.5216 260.835 51.8978C260.45 52.2739 260.257 52.7707 260.257 53.388V56.8604H258.684V50.1037H260.257V50.7258C260.732 50.1857 261.468 49.9156 262.467 49.9156Z" fill="#474649"/>
<path d="M273.899 49.9156C274.927 49.9156 275.753 50.1519 276.376 50.6245C277 51.0972 277.311 51.7579 277.311 52.6067V56.8604H275.738V56.2382C275.214 56.7784 274.438 57.0485 273.409 57.0485C272.559 57.0485 271.881 56.8556 271.377 56.4697C270.882 56.0743 270.635 55.51 270.635 54.7769C270.635 54.2464 270.788 53.8172 271.095 53.4893C271.411 53.1517 271.792 52.9202 272.237 52.7948C272.692 52.6694 273.211 52.6067 273.795 52.6067H275.738C275.738 52.1727 275.57 51.8544 275.234 51.6518C274.898 51.4396 274.458 51.3335 273.914 51.3335C272.974 51.3335 272.386 51.6229 272.148 52.2016H270.472C270.67 51.4685 271.08 50.9043 271.703 50.5088C272.336 50.1133 273.068 49.9156 273.899 49.9156ZM275.738 54.1982V53.8365H273.78C272.732 53.8365 272.208 54.15 272.208 54.7769C272.208 55.0856 272.336 55.3267 272.593 55.5004C272.85 55.6643 273.207 55.7463 273.661 55.7463C274.275 55.7463 274.774 55.6113 275.16 55.3412C275.546 55.0615 275.738 54.6805 275.738 54.1982Z" fill="#474649"/>
<path d="M288.088 50.1037H289.661V56.5131C289.661 57.5838 289.339 58.4326 288.697 59.0596C288.064 59.6865 287.178 60 286.041 60C285.23 60 284.503 59.7926 283.86 59.3779C283.217 58.9631 282.767 58.394 282.51 57.6706H284.231C284.547 58.2783 285.151 58.5821 286.041 58.5821C286.674 58.5821 287.173 58.394 287.539 58.0178C287.905 57.6513 288.088 57.1594 288.088 56.5421V56.2382C287.564 56.7784 286.837 57.0485 285.907 57.0485C284.829 57.0485 283.969 56.7012 283.326 56.0067C282.693 55.3026 282.376 54.4586 282.376 53.4748C282.376 52.5006 282.693 51.6663 283.326 50.9718C283.969 50.2677 284.829 49.9156 285.907 49.9156C286.837 49.9156 287.564 50.1857 288.088 50.7258V50.1037ZM287.51 55.0663C287.935 54.6901 288.148 54.1596 288.148 53.4748C288.148 52.79 287.935 52.2643 287.51 51.8978C287.094 51.5216 286.595 51.3335 286.011 51.3335C285.408 51.3335 284.913 51.5457 284.528 51.9701C284.142 52.3849 283.949 52.8864 283.949 53.4748C283.949 54.0728 284.142 54.584 284.528 55.0084C284.913 55.4232 285.408 55.6306 286.011 55.6306C286.595 55.6306 287.094 55.4425 287.51 55.0663Z" fill="#474649"/>
<path d="M298.596 55.6306C299.348 55.6306 299.892 55.3846 300.228 54.8927H301.935C301.677 55.5582 301.247 56.0839 300.644 56.4697C300.04 56.8556 299.358 57.0485 298.596 57.0485C297.538 57.0485 296.658 56.7109 295.956 56.0357C295.253 55.3605 294.902 54.5069 294.902 53.4748C294.902 52.462 295.244 51.618 295.926 50.9428C296.608 50.258 297.474 49.9156 298.522 49.9156C299.541 49.9156 300.382 50.2532 301.044 50.9284C301.707 51.5939 302.038 52.4234 302.038 53.4169C302.038 53.7256 302.028 53.9281 302.009 54.0246H296.534C296.623 54.5069 296.856 54.8975 297.232 55.1965C297.617 55.4859 298.072 55.6306 298.596 55.6306ZM298.522 51.2901C298.008 51.2901 297.568 51.4299 297.202 51.7097C296.846 51.9797 296.633 52.3414 296.564 52.7948H300.377C300.298 52.3318 300.09 51.9653 299.754 51.6952C299.427 51.4251 299.017 51.2901 298.522 51.2901Z" fill="#474649"/>
<path d="M317.5 56.8604V53.0263C317.5 52.4958 317.362 52.081 317.085 51.782C316.808 51.483 316.392 51.3335 315.839 51.3335C315.324 51.3335 314.879 51.5216 314.503 51.8978C314.137 52.2739 313.954 52.7707 313.954 53.388V56.8604H312.382V53.0263C312.382 52.4958 312.243 52.081 311.966 51.782C311.69 51.483 311.274 51.3335 310.72 51.3335C310.206 51.3335 309.766 51.5216 309.4 51.8978C309.034 52.2739 308.851 52.761 308.851 53.3591V56.8604H307.278V50.1037H308.851V50.7258C309.336 50.1857 310.038 49.9156 310.958 49.9156C312.125 49.9156 312.965 50.2966 313.48 51.0586C314.103 50.2966 314.963 49.9156 316.061 49.9156C316.971 49.9156 317.698 50.1809 318.242 50.7114C318.796 51.2419 319.073 51.946 319.073 52.8237V56.8604H317.5Z" fill="#474649"/>
<path d="M327.877 55.6306C328.629 55.6306 329.173 55.3846 329.509 54.8927H331.216C330.958 55.5582 330.528 56.0839 329.925 56.4697C329.321 56.8556 328.639 57.0485 327.877 57.0485C326.819 57.0485 325.939 56.7109 325.237 56.0357C324.534 55.3605 324.183 54.5069 324.183 53.4748C324.183 52.462 324.525 51.618 325.207 50.9428C325.889 50.258 326.755 49.9156 327.803 49.9156C328.822 49.9156 329.663 50.2532 330.325 50.9284C330.988 51.5939 331.319 52.4234 331.319 53.4169C331.319 53.7256 331.309 53.9281 331.29 54.0246H325.815C325.904 54.5069 326.137 54.8975 326.513 55.1965C326.898 55.4859 327.353 55.6306 327.877 55.6306ZM327.803 51.2901C327.289 51.2901 326.849 51.4299 326.483 51.7097C326.127 51.9797 325.914 52.3414 325.845 52.7948H329.658C329.579 52.3318 329.371 51.9653 329.035 51.6952C328.708 51.4251 328.298 51.2901 327.803 51.2901Z" fill="#474649"/>
<path d="M340.342 49.9156C341.272 49.9156 342.014 50.1809 342.568 50.7114C343.122 51.2419 343.399 51.9508 343.399 52.8382V56.8604H341.826V53.0552C341.826 52.5151 341.678 52.0955 341.381 51.7965C341.094 51.4878 340.664 51.3335 340.09 51.3335C339.556 51.3335 339.096 51.5216 338.711 51.8978C338.325 52.2739 338.132 52.7707 338.132 53.388V56.8604H336.559V50.1037H338.132V50.7258C338.607 50.1857 339.344 49.9156 340.342 49.9156Z" fill="#474649"/>
<path d="M349.474 48.4109H351.047V50.1037H353.213V51.4492H351.047V54.5021C351.047 55.1772 351.398 55.5148 352.1 55.5148H353.213V56.8604H352.086C351.235 56.8604 350.587 56.6771 350.142 56.3106C349.697 55.9344 349.474 55.4184 349.474 54.7625V51.4492H348.199V50.1037H349.474V48.4109Z" fill="#474649"/>
</svg>
