<svg width="200" height="35" viewBox="0 0 200 35" fill="none" xmlns="http://www.w3.org/2000/svg">
<path d="M0 0.129519H1.32109V18.2621H0V0.129519Z" fill="white"/>
<path d="M29.9686 18.2621L29.9427 2.7458L22.3529 15.8531H21.7053L14.1155 2.79761V18.2621H12.8203V0.129519H13.9342L22.0421 14.1434L30.1499 0.129519H31.2379L31.2638 18.2621H29.9686Z" fill="white"/>
<path d="M59.9148 18.2621L59.8889 2.7458L52.2991 15.8531H51.6515L44.0617 2.79761V18.2621H42.7665V0.129519H43.8803L51.9882 14.1434L60.0961 0.129519H61.184L61.2099 18.2621H59.9148Z" fill="white"/>
<path d="M97.4983 9.27354H98.7675V16.0603C97.9732 16.8202 97.0061 17.3987 95.8663 17.7959C94.7438 18.1931 93.5523 18.3917 92.2916 18.3917C90.4956 18.3917 88.8723 17.9945 87.4217 17.2001C85.9884 16.4057 84.8572 15.3091 84.0283 13.9103C83.2167 12.5115 82.8108 10.94 82.8108 9.19583C82.8108 7.45164 83.2167 5.88015 84.0283 4.48135C84.8572 3.08255 85.9884 1.98595 87.4217 1.19157C88.8723 0.397191 90.5042 0 92.3175 0C93.6472 0 94.8647 0.215865 95.9699 0.647595C97.0924 1.06205 98.0509 1.67511 98.8453 2.48676L98.0163 3.36749C97.2565 2.60764 96.4017 2.06367 95.4519 1.73555C94.5193 1.39017 93.4832 1.21748 92.3434 1.21748C90.7892 1.21748 89.3818 1.56286 88.1211 2.25363C86.8777 2.94439 85.902 3.90283 85.194 5.12894C84.4859 6.33778 84.1319 7.69341 84.1319 9.19583C84.1319 10.681 84.4859 12.0366 85.194 13.2627C85.9193 14.4716 86.9036 15.43 88.147 16.138C89.3904 16.8288 90.7892 17.1742 92.3434 17.1742C94.4157 17.1742 96.134 16.6216 97.4983 15.5163V9.27354Z" fill="white"/>
<path d="M122.351 18.2621L118.025 12.2007C117.386 12.287 116.799 12.3302 116.264 12.3302H111.083V18.2621H109.762V0.129519H116.264C118.543 0.129519 120.331 0.673498 121.626 1.76146C122.921 2.83214 123.569 4.32593 123.569 6.2428C123.569 7.67615 123.197 8.88499 122.455 9.86933C121.73 10.8364 120.685 11.5185 119.321 11.9157L123.854 18.2621H122.351ZM116.264 11.1645C118.198 11.1645 119.675 10.7414 120.693 9.89523C121.712 9.03177 122.222 7.8143 122.222 6.2428C122.222 4.67131 121.712 3.46247 120.693 2.61628C119.675 1.75282 118.198 1.32109 116.264 1.32109H111.083V11.1645H116.264Z" fill="white"/>
<path d="M141.28 18.3917C139.501 18.3917 137.895 17.9945 136.462 17.2001C135.028 16.3884 133.897 15.2832 133.068 13.8844C132.257 12.4856 131.851 10.9227 131.851 9.19583C131.851 7.46891 132.257 5.90606 133.068 4.50725C133.897 3.10845 135.028 2.01186 136.462 1.21748C137.895 0.405825 139.501 0 141.28 0C143.059 0 144.665 0.397191 146.098 1.19157C147.531 1.98595 148.654 3.08255 149.465 4.48135C150.294 5.88015 150.709 7.45164 150.709 9.19583C150.709 10.94 150.294 12.5115 149.465 13.9103C148.654 15.3091 147.531 16.4057 146.098 17.2001C144.665 17.9945 143.059 18.3917 141.28 18.3917ZM141.28 17.1742C142.8 17.1742 144.172 16.8288 145.399 16.138C146.625 15.4473 147.592 14.4975 148.3 13.2886C149.008 12.0625 149.362 10.6982 149.362 9.19583C149.362 7.69341 149.008 6.33778 148.3 5.12894C147.592 3.90283 146.625 2.94439 145.399 2.25363C144.172 1.56286 142.8 1.21748 141.28 1.21748C139.76 1.21748 138.379 1.56286 137.135 2.25363C135.909 2.94439 134.942 3.90283 134.234 5.12894C133.526 6.33778 133.172 7.69341 133.172 9.19583C133.172 10.6982 133.526 12.0625 134.234 13.2886C134.942 14.4975 135.909 15.4473 137.135 16.138C138.379 16.8288 139.76 17.1742 141.28 17.1742Z" fill="white"/>
<path d="M167.569 18.3917C165.273 18.3917 163.485 17.7268 162.207 16.3971C160.947 15.0673 160.316 13.1246 160.316 10.5687V0.129519H161.637V10.5169C161.637 12.7446 162.147 14.4111 163.166 15.5163C164.185 16.6216 165.661 17.1742 167.595 17.1742C169.512 17.1742 170.98 16.6216 171.999 15.5163C173.018 14.4111 173.527 12.7446 173.527 10.5169V0.129519H174.848V10.5687C174.848 13.1246 174.209 15.0673 172.931 16.3971C171.653 17.7268 169.866 18.3917 167.569 18.3917Z" fill="white"/>
<path d="M192.695 0.129519C194.975 0.129519 196.762 0.673498 198.057 1.76146C199.352 2.83214 200 4.32593 200 6.2428C200 8.14241 199.352 9.6362 198.057 10.7242C196.762 11.7948 194.975 12.3302 192.695 12.3302H187.514V18.2621H186.193V0.129519H192.695ZM192.695 11.1386C194.629 11.1386 196.106 10.7155 197.125 9.86933C198.144 9.02314 198.653 7.8143 198.653 6.2428C198.653 4.67131 198.144 3.46247 197.125 2.61628C196.106 1.75282 194.629 1.32109 192.695 1.32109H187.514V11.1386H192.695Z" fill="white"/>
<path d="M0.924753 27.2642V32.7682H0.012941V27.2642H0.924753Z" fill="white"/>
<path d="M6.25024 28.7894C6.7697 28.7894 7.18416 28.9414 7.49362 29.2453C7.80308 29.5493 7.95781 29.9554 7.95781 30.4638V32.7682H7.07916V30.5882C7.07916 30.2787 6.99627 30.0383 6.83048 29.867C6.67023 29.6902 6.42984 29.6018 6.10932 29.6018C5.81091 29.6018 5.55395 29.7095 5.33843 29.925C5.12291 30.1406 5.01515 30.4252 5.01515 30.7788V32.7682H4.13649V28.8972H5.01515V29.2536C5.2804 28.9442 5.6921 28.7894 6.25024 28.7894Z" fill="white"/>
<path d="M11.3526 27.9274H12.2312V28.8972H13.4414V29.6681H12.2312V31.4171C12.2312 31.8039 12.4274 31.9973 12.8198 31.9973H13.4414V32.7682H12.8115C12.3362 32.7682 11.9743 32.6632 11.7256 32.4533C11.4769 32.2377 11.3526 31.9421 11.3526 31.5663V29.6681H10.6397V28.8972H11.3526V27.9274Z" fill="white"/>
<path d="M18.0623 32.0637C18.4823 32.0637 18.7863 31.9227 18.9742 31.6409H19.9274C19.7837 32.0222 19.5434 32.3234 19.2063 32.5444C18.8692 32.7655 18.4879 32.876 18.0623 32.876C17.4711 32.876 16.9792 32.6826 16.5869 32.2958C16.1945 31.9089 15.9983 31.4199 15.9983 30.8286C15.9983 30.2483 16.189 29.7648 16.5703 29.378C16.9516 28.9856 17.4351 28.7894 18.0209 28.7894C18.5901 28.7894 19.0598 28.9828 19.4301 29.3697C19.8003 29.751 19.9854 30.2262 19.9854 30.7954C19.9854 30.9722 19.9799 31.0883 19.9689 31.1436H16.9101C16.9599 31.4199 17.0898 31.6437 17.2997 31.815C17.5153 31.9808 17.7695 32.0637 18.0623 32.0637ZM18.0209 29.5769C17.7335 29.5769 17.4876 29.657 17.2832 29.8173C17.0842 29.972 16.9654 30.1793 16.9267 30.439H19.0571C19.0128 30.1737 18.8968 29.9637 18.7089 29.809C18.5265 29.6543 18.2972 29.5769 18.0209 29.5769Z" fill="white"/>
<path d="M22.9131 28.8972H23.7918V29.3697C23.8913 29.2205 24.0432 29.0989 24.2477 29.0049C24.4577 28.911 24.7009 28.864 24.9772 28.864H25.3336V29.7012H24.9772C24.6014 29.7012 24.3085 29.809 24.0985 30.0245C23.894 30.24 23.7918 30.5302 23.7918 30.8949V32.7682H22.9131V28.8972Z" fill="white"/>
<path d="M30.3009 28.7894C30.8204 28.7894 31.2348 28.9414 31.5443 29.2453C31.8537 29.5493 32.0085 29.9554 32.0085 30.4638V32.7682H31.1298V30.5882C31.1298 30.2787 31.0469 30.0383 30.8811 29.867C30.7209 29.6902 30.4805 29.6018 30.16 29.6018C29.8616 29.6018 29.6046 29.7095 29.3891 29.925C29.1736 30.1406 29.0658 30.4252 29.0658 30.7788V32.7682H28.1872V28.8972H29.0658V29.2536C29.3311 28.9442 29.7428 28.7894 30.3009 28.7894Z" fill="white"/>
<path d="M36.688 28.7894C37.2628 28.7894 37.7242 28.9248 38.0723 29.1956C38.4205 29.4664 38.5946 29.8449 38.5946 30.3312V32.7682H37.7159V32.4118C37.423 32.7213 36.9892 32.876 36.4145 32.876C35.9393 32.876 35.5607 32.7655 35.2789 32.5444C35.0026 32.3179 34.8644 31.9946 34.8644 31.5746C34.8644 31.2707 34.9501 31.0247 35.1214 30.8369C35.2982 30.6434 35.511 30.5108 35.7597 30.439C36.0139 30.3671 36.304 30.3312 36.63 30.3312H37.7159C37.7159 30.0825 37.622 29.9002 37.4341 29.7841C37.2462 29.6626 37.0003 29.6018 36.6963 29.6018C36.1714 29.6018 35.8426 29.7676 35.7099 30.0991H34.7732C34.8838 29.6791 35.1131 29.3559 35.4612 29.1293C35.8149 28.9027 36.2239 28.7894 36.688 28.7894ZM37.7159 31.243V31.0358H36.6217C36.036 31.0358 35.7431 31.2154 35.7431 31.5746C35.7431 31.7514 35.8149 31.8896 35.9586 31.9891C36.1023 32.083 36.3012 32.13 36.5554 32.13C36.898 32.13 37.1771 32.0526 37.3926 31.8979C37.6082 31.7376 37.7159 31.5193 37.7159 31.243Z" fill="white"/>
<path d="M41.9967 27.9274H42.8754V28.8972H44.0856V29.6681H42.8754V31.4171C42.8754 31.8039 43.0715 31.9973 43.4639 31.9973H44.0856V32.7682H43.4556C42.9804 32.7682 42.6184 32.6632 42.3697 32.4533C42.121 32.2377 41.9967 31.9421 41.9967 31.5663V29.6681H41.2838V28.8972H41.9967V27.9274Z" fill="white"/>
<path d="M46.9966 28.8972H47.8752V32.7682H46.9966V28.8972ZM46.9386 28.1429V27.1399H47.925V28.1429H46.9386Z" fill="white"/>
<path d="M52.8879 28.7894C53.4736 28.7894 53.9627 28.9856 54.3551 29.378C54.7529 29.7648 54.9519 30.2511 54.9519 30.8369C54.9519 31.4171 54.7529 31.9034 54.3551 32.2958C53.9627 32.6826 53.4736 32.876 52.8879 32.876C52.2966 32.876 51.802 32.6826 51.4041 32.2958C51.0117 31.9089 50.8156 31.4226 50.8156 30.8369C50.8156 30.2511 51.0117 29.7648 51.4041 29.378C51.802 28.9856 52.2966 28.7894 52.8879 28.7894ZM52.8879 32.0637C53.236 32.0637 53.5206 31.9476 53.7417 31.7155C53.9627 31.4834 54.0732 31.1905 54.0732 30.8369C54.0732 30.4777 53.9627 30.182 53.7417 29.9499C53.5206 29.7178 53.236 29.6018 52.8879 29.6018C52.5452 29.6018 52.2606 29.7206 52.0341 29.9582C51.8075 30.1903 51.6942 30.4832 51.6942 30.8369C51.6942 31.185 51.8075 31.4779 52.0341 31.7155C52.2606 31.9476 52.5452 32.0637 52.8879 32.0637Z" fill="white"/>
<path d="M59.9979 28.7894C60.5174 28.7894 60.9318 28.9414 61.2413 29.2453C61.5508 29.5493 61.7055 29.9554 61.7055 30.4638V32.7682H60.8268V30.5882C60.8268 30.2787 60.744 30.0383 60.5782 29.867C60.4179 29.6902 60.1775 29.6018 59.857 29.6018C59.5586 29.6018 59.3016 29.7095 59.0861 29.925C58.8706 30.1406 58.7628 30.4252 58.7628 30.7788V32.7682H57.8842V28.8972H58.7628V29.2536C59.0281 28.9442 59.4398 28.7894 59.9979 28.7894Z" fill="white"/>
<path d="M66.3851 28.7894C66.9598 28.7894 67.4212 28.9248 67.7694 29.1956C68.1175 29.4664 68.2916 29.8449 68.2916 30.3312V32.7682H67.4129V32.4118C67.1201 32.7213 66.6863 32.876 66.1115 32.876C65.6363 32.876 65.2578 32.7655 64.9759 32.5444C64.6996 32.3179 64.5615 31.9946 64.5615 31.5746C64.5615 31.2707 64.6471 31.0247 64.8184 30.8369C64.9953 30.6434 65.208 30.5108 65.4567 30.439C65.7109 30.3671 66.001 30.3312 66.3271 30.3312H67.4129C67.4129 30.0825 67.319 29.9002 67.1311 29.7841C66.9432 29.6626 66.6973 29.6018 66.3934 29.6018C65.8684 29.6018 65.5396 29.7676 65.407 30.0991H64.4703C64.5808 29.6791 64.8101 29.3559 65.1583 29.1293C65.5119 28.9027 65.9209 28.7894 66.3851 28.7894ZM67.4129 31.243V31.0358H66.3188C65.733 31.0358 65.4401 31.2154 65.4401 31.5746C65.4401 31.7514 65.5119 31.8896 65.6556 31.9891C65.7993 32.083 65.9983 32.13 66.2524 32.13C66.5951 32.13 66.8741 32.0526 67.0897 31.8979C67.3052 31.7376 67.4129 31.5193 67.4129 31.243Z" fill="white"/>
<path d="M71.3787 27.2228H72.2574V32.7682H71.3787V27.2228Z" fill="white"/>
<path d="M80.2609 27.2642L82.4659 31.757L84.6708 27.2642H85.7152V32.7682H84.8034V28.9469L82.9301 32.7682H81.9768L80.1034 28.9469V32.7682H79.1916V27.2642H80.2609Z" fill="white"/>
<path d="M90.7486 32.0637C91.1686 32.0637 91.4725 31.9227 91.6604 31.6409H92.6136C92.47 32.0222 92.2296 32.3234 91.8925 32.5444C91.5554 32.7655 91.1741 32.876 90.7486 32.876C90.1573 32.876 89.6655 32.6826 89.2731 32.2958C88.8807 31.9089 88.6846 31.4199 88.6846 30.8286C88.6846 30.2483 88.8752 29.7648 89.2565 29.378C89.6378 28.9856 90.1214 28.7894 90.7071 28.7894C91.2763 28.7894 91.746 28.9828 92.1163 29.3697C92.4865 29.751 92.6717 30.2262 92.6717 30.7954C92.6717 30.9722 92.6661 31.0883 92.6551 31.1436H89.5964C89.6461 31.4199 89.776 31.6437 89.986 31.815C90.2015 31.9808 90.4557 32.0637 90.7486 32.0637ZM90.7071 29.5769C90.4198 29.5769 90.1739 29.657 89.9694 29.8173C89.7705 29.972 89.6516 30.1793 89.613 30.439H91.7433C91.6991 30.1737 91.583 29.9637 91.3951 29.809C91.2128 29.6543 90.9834 29.5769 90.7071 29.5769Z" fill="white"/>
<path d="M98.5503 27.2228H99.429V32.7682H98.5503V32.4118C98.2575 32.7213 97.8513 32.876 97.3318 32.876C96.7295 32.876 96.2487 32.6771 95.8895 32.2792C95.5358 31.8758 95.359 31.395 95.359 30.8369C95.359 30.2732 95.5358 29.7924 95.8895 29.3945C96.2487 28.9911 96.7295 28.7894 97.3318 28.7894C97.8513 28.7894 98.2575 28.9442 98.5503 29.2536V27.2228ZM98.2271 31.7487C98.4647 31.5332 98.5835 31.2292 98.5835 30.8369C98.5835 30.4445 98.4647 30.1406 98.2271 29.925C97.995 29.7095 97.7159 29.6018 97.3899 29.6018C97.0528 29.6018 96.7765 29.7233 96.5609 29.9665C96.3454 30.2041 96.2377 30.4942 96.2377 30.8369C96.2377 31.174 96.3454 31.4641 96.5609 31.7072C96.7765 31.9449 97.0528 32.0637 97.3899 32.0637C97.7159 32.0637 97.995 31.9587 98.2271 31.7487Z" fill="white"/>
<path d="M102.614 28.8972H103.493V32.7682H102.614V28.8972ZM102.556 28.1429V27.1399H103.543V28.1429H102.556Z" fill="white"/>
<path d="M110.346 30.0991H109.426C109.221 29.7676 108.906 29.6018 108.481 29.6018C108.138 29.6018 107.856 29.7178 107.635 29.9499C107.42 30.182 107.312 30.4749 107.312 30.8286C107.312 31.1822 107.42 31.4779 107.635 31.7155C107.856 31.9476 108.138 32.0637 108.481 32.0637C108.906 32.0637 109.221 31.8979 109.426 31.5663H110.346C110.202 31.9697 109.962 32.2902 109.625 32.5279C109.293 32.76 108.912 32.876 108.481 32.876C107.9 32.876 107.414 32.6826 107.022 32.2958C106.629 31.9034 106.433 31.4143 106.433 30.8286C106.433 30.2483 106.629 29.7648 107.022 29.378C107.414 28.9856 107.9 28.7894 108.481 28.7894C108.912 28.7894 109.293 28.9082 109.625 29.1459C109.962 29.378 110.202 29.6957 110.346 30.0991Z" fill="white"/>
<path d="M114.834 28.7894C115.409 28.7894 115.871 28.9248 116.219 29.1956C116.567 29.4664 116.741 29.8449 116.741 30.3312V32.7682H115.862V32.4118C115.569 32.7213 115.136 32.876 114.561 32.876C114.086 32.876 113.707 32.7655 113.425 32.5444C113.149 32.3179 113.011 31.9946 113.011 31.5746C113.011 31.2707 113.096 31.0247 113.268 30.8369C113.445 30.6434 113.657 30.5108 113.906 30.439C114.16 30.3671 114.45 30.3312 114.776 30.3312H115.862C115.862 30.0825 115.768 29.9002 115.58 29.7841C115.393 29.6626 115.147 29.6018 114.843 29.6018C114.318 29.6018 113.989 29.7676 113.856 30.0991H112.92C113.03 29.6791 113.26 29.3559 113.608 29.1293C113.961 28.9027 114.37 28.7894 114.834 28.7894ZM115.862 31.243V31.0358H114.768C114.182 31.0358 113.89 31.2154 113.89 31.5746C113.89 31.7514 113.961 31.8896 114.105 31.9891C114.249 32.083 114.448 32.13 114.702 32.13C115.044 32.13 115.324 32.0526 115.539 31.8979C115.755 31.7376 115.862 31.5193 115.862 31.243Z" fill="white"/>
<path d="M119.828 27.2228H120.707V32.7682H119.828V27.2228Z" fill="white"/>
<path d="M128.71 27.2642L130.915 31.757L133.12 27.2642H134.165V32.7682H133.253V28.9469L131.379 32.7682H130.426L128.553 28.9469V32.7682H127.641V27.2642H128.71Z" fill="white"/>
<path d="M138.974 28.7894C139.549 28.7894 140.01 28.9248 140.358 29.1956C140.707 29.4664 140.881 29.8449 140.881 30.3312V32.7682H140.002V32.4118C139.709 32.7213 139.275 32.876 138.701 32.876C138.225 32.876 137.847 32.7655 137.565 32.5444C137.289 32.3179 137.151 31.9946 137.151 31.5746C137.151 31.2707 137.236 31.0247 137.408 30.8369C137.584 30.6434 137.797 30.5108 138.046 30.439C138.3 30.3671 138.59 30.3312 138.916 30.3312H140.002C140.002 30.0825 139.908 29.9002 139.72 29.7841C139.532 29.6626 139.286 29.6018 138.982 29.6018C138.457 29.6018 138.129 29.7676 137.996 30.0991H137.059C137.17 29.6791 137.399 29.3559 137.747 29.1293C138.101 28.9027 138.51 28.7894 138.974 28.7894ZM140.002 31.243V31.0358H138.908C138.322 31.0358 138.029 31.2154 138.029 31.5746C138.029 31.7514 138.101 31.8896 138.245 31.9891C138.388 32.083 138.587 32.13 138.842 32.13C139.184 32.13 139.463 32.0526 139.679 31.8979C139.894 31.7376 140.002 31.5193 140.002 31.243Z" fill="white"/>
<path d="M146.082 28.7894C146.601 28.7894 147.016 28.9414 147.325 29.2453C147.634 29.5493 147.789 29.9554 147.789 30.4638V32.7682H146.91V30.5882C146.91 30.2787 146.828 30.0383 146.662 29.867C146.502 29.6902 146.261 29.6018 145.941 29.6018C145.642 29.6018 145.385 29.7095 145.17 29.925C144.954 30.1406 144.846 30.4252 144.846 30.7788V32.7682H143.968V28.8972H144.846V29.2536C145.112 28.9442 145.523 28.7894 146.082 28.7894Z" fill="white"/>
<path d="M152.469 28.7894C153.043 28.7894 153.505 28.9248 153.853 29.1956C154.201 29.4664 154.375 29.8449 154.375 30.3312V32.7682H153.497V32.4118C153.204 32.7213 152.77 32.876 152.195 32.876C151.72 32.876 151.341 32.7655 151.06 32.5444C150.783 32.3179 150.645 31.9946 150.645 31.5746C150.645 31.2707 150.731 31.0247 150.902 30.8369C151.079 30.6434 151.292 30.5108 151.54 30.439C151.795 30.3671 152.085 30.3312 152.411 30.3312H153.497C153.497 30.0825 153.403 29.9002 153.215 29.7841C153.027 29.6626 152.781 29.6018 152.477 29.6018C151.952 29.6018 151.623 29.7676 151.491 30.0991H150.554C150.664 29.6791 150.894 29.3559 151.242 29.1293C151.596 28.9027 152.005 28.7894 152.469 28.7894ZM153.497 31.243V31.0358H152.402C151.817 31.0358 151.524 31.2154 151.524 31.5746C151.524 31.7514 151.596 31.8896 151.739 31.9891C151.883 32.083 152.082 32.13 152.336 32.13C152.679 32.13 152.958 32.0526 153.173 31.8979C153.389 31.7376 153.497 31.5193 153.497 31.243Z" fill="white"/>
<path d="M160.397 28.8972H161.275V32.5693C161.275 33.1827 161.096 33.669 160.737 34.0282C160.383 34.3874 159.888 34.567 159.253 34.567C158.8 34.567 158.394 34.4482 158.034 34.2106C157.675 33.9729 157.424 33.6469 157.28 33.2324H158.242C158.418 33.5806 158.755 33.7547 159.253 33.7547C159.607 33.7547 159.886 33.6469 160.09 33.4314C160.295 33.2214 160.397 32.9396 160.397 32.5859V32.4118C160.104 32.7213 159.698 32.876 159.178 32.876C158.576 32.876 158.095 32.6771 157.736 32.2792C157.382 31.8758 157.205 31.3922 157.205 30.8286C157.205 30.2704 157.382 29.7924 157.736 29.3945C158.095 28.9911 158.576 28.7894 159.178 28.7894C159.698 28.7894 160.104 28.9442 160.397 29.2536V28.8972ZM160.073 31.7404C160.311 31.5249 160.43 31.2209 160.43 30.8286C160.43 30.4362 160.311 30.135 160.073 29.925C159.841 29.7095 159.562 29.6018 159.236 29.6018C158.899 29.6018 158.623 29.7233 158.407 29.9665C158.192 30.2041 158.084 30.4915 158.084 30.8286C158.084 31.1712 158.192 31.4641 158.407 31.7072C158.623 31.9449 158.899 32.0637 159.236 32.0637C159.562 32.0637 159.841 31.9559 160.073 31.7404Z" fill="white"/>
<path d="M166.268 32.0637C166.688 32.0637 166.992 31.9227 167.18 31.6409H168.133C167.989 32.0222 167.749 32.3234 167.412 32.5444C167.075 32.7655 166.694 32.876 166.268 32.876C165.677 32.876 165.185 32.6826 164.793 32.2958C164.4 31.9089 164.204 31.4199 164.204 30.8286C164.204 30.2483 164.395 29.7648 164.776 29.378C165.157 28.9856 165.641 28.7894 166.227 28.7894C166.796 28.7894 167.266 28.9828 167.636 29.3697C168.006 29.751 168.191 30.2262 168.191 30.7954C168.191 30.9722 168.186 31.0883 168.175 31.1436H165.116C165.166 31.4199 165.295 31.6437 165.505 31.815C165.721 31.9808 165.975 32.0637 166.268 32.0637ZM166.227 29.5769C165.939 29.5769 165.693 29.657 165.489 29.8173C165.29 29.972 165.171 30.1793 165.132 30.439H167.263C167.219 30.1737 167.102 29.9637 166.915 29.809C166.732 29.6543 166.503 29.5769 166.227 29.5769Z" fill="white"/>
<path d="M176.83 32.7682V30.5716C176.83 30.2677 176.753 30.03 176.598 29.8587C176.443 29.6874 176.211 29.6018 175.902 29.6018C175.614 29.6018 175.366 29.7095 175.156 29.925C174.951 30.1406 174.849 30.4252 174.849 30.7788V32.7682H173.97V30.5716C173.97 30.2677 173.893 30.03 173.738 29.8587C173.583 29.6874 173.351 29.6018 173.042 29.6018C172.755 29.6018 172.509 29.7095 172.304 29.925C172.1 30.1406 171.998 30.4196 171.998 30.7623V32.7682H171.119V28.8972H171.998V29.2536C172.268 28.9442 172.661 28.7894 173.175 28.7894C173.827 28.7894 174.296 29.0077 174.584 29.4443C174.932 29.0077 175.413 28.7894 176.026 28.7894C176.534 28.7894 176.941 28.9414 177.245 29.2453C177.554 29.5493 177.709 29.9527 177.709 30.4556V32.7682H176.83Z" fill="white"/>
<path d="M182.628 32.0637C183.048 32.0637 183.352 31.9227 183.54 31.6409H184.493C184.35 32.0222 184.109 32.3234 183.772 32.5444C183.435 32.7655 183.054 32.876 182.628 32.876C182.037 32.876 181.545 32.6826 181.153 32.2958C180.76 31.9089 180.564 31.4199 180.564 30.8286C180.564 30.2483 180.755 29.7648 181.136 29.378C181.517 28.9856 182.001 28.7894 182.587 28.7894C183.156 28.7894 183.626 28.9828 183.996 29.3697C184.366 29.751 184.551 30.2262 184.551 30.7954C184.551 30.9722 184.546 31.0883 184.535 31.1436H181.476C181.526 31.4199 181.656 31.6437 181.866 31.815C182.081 31.9808 182.335 32.0637 182.628 32.0637ZM182.587 29.5769C182.299 29.5769 182.053 29.657 181.849 29.8173C181.65 29.972 181.531 30.1793 181.493 30.439H183.623C183.579 30.1737 183.463 29.9637 183.275 29.809C183.092 29.6543 182.863 29.5769 182.587 29.5769Z" fill="white"/>
<path d="M189.593 28.7894C190.112 28.7894 190.527 28.9414 190.836 29.2453C191.146 29.5493 191.3 29.9554 191.3 30.4638V32.7682H190.422V30.5882C190.422 30.2787 190.339 30.0383 190.173 29.867C190.013 29.6902 189.772 29.6018 189.452 29.6018C189.153 29.6018 188.896 29.7095 188.681 29.925C188.465 30.1406 188.358 30.4252 188.358 30.7788V32.7682H187.479V28.8972H188.358V29.2536C188.623 28.9442 189.035 28.7894 189.593 28.7894Z" fill="white"/>
<path d="M194.695 27.9274H195.574V28.8972H196.784V29.6681H195.574V31.4171C195.574 31.8039 195.77 31.9973 196.162 31.9973H196.784V32.7682H196.154C195.679 32.7682 195.317 32.6632 195.068 32.4533C194.819 32.2377 194.695 31.9421 194.695 31.5663V29.6681H193.982V28.8972H194.695V27.9274Z" fill="white"/>
</svg>
