<svg width="261" height="24" viewBox="0 0 261 24" fill="none" xmlns="http://www.w3.org/2000/svg">
<path d="M5.9951 22.4327C4.13388 21.3943 2.68408 19.9641 1.60653 18.142C0.52898 16.3396 0 14.2824 0 12.0098C0 9.73714 0.52898 7.69959 1.60653 5.87755C2.68408 4.05551 4.13388 2.62531 5.9951 1.58694C7.85633 0.548571 9.93306 0.0391837 12.2645 0.0391837C14.5959 0.0391837 15.5559 0.313469 16.9861 0.862041C18.4163 1.41061 19.6506 2.23347 20.6694 3.31102L19.5918 4.42775C17.711 2.56653 15.2816 1.62612 12.3429 1.62612C9.40408 1.62612 8.56163 2.07673 6.93551 2.97796C5.30939 3.87918 4.05551 5.11347 3.1151 6.70041C2.19429 8.28735 1.72408 10.0506 1.72408 12.0098C1.72408 13.969 2.19429 15.7322 3.1151 17.3192C4.03592 18.9061 5.30939 20.1404 6.93551 21.0416C8.56163 21.9429 10.3641 22.3935 12.3429 22.3935C15.262 22.3935 17.6914 21.4531 19.5918 19.5527L20.6694 20.6694C19.6506 21.7469 18.4163 22.5698 16.9665 23.138C15.5167 23.7061 13.9494 23.9804 12.2645 23.9804C10.5796 23.9804 7.85633 23.471 5.9951 22.4327Z" fill="#00A887"/>
<path d="M29.662 22.4131C27.8008 21.3747 26.3314 19.9249 25.2539 18.1029C24.1763 16.2808 23.6473 14.2433 23.6473 11.9902C23.6473 9.73714 24.1763 7.69959 25.2539 5.87755C26.3314 4.05551 27.7812 2.62531 29.662 1.56735C31.5233 0.52898 33.6196 0 35.9314 0C38.2433 0 40.3396 0.509388 42.2008 1.54776C44.062 2.58612 45.5314 4.01633 46.609 5.83837C47.6865 7.66041 48.2155 9.69796 48.2155 11.9706C48.2155 14.2433 47.6865 16.2808 46.609 18.1029C45.5314 19.9249 44.062 21.3551 42.2008 22.3935C40.3396 23.4318 38.2433 23.9412 35.9314 23.9412C33.6196 23.9412 31.5233 23.4122 29.662 22.3739V22.4131ZM41.2996 21.0612C42.9061 20.16 44.16 18.9257 45.0808 17.3388C46.0016 15.7518 46.4718 13.9886 46.4718 12.0294C46.4718 10.0702 46.0016 8.30694 45.0808 6.72C44.16 5.13306 42.9061 3.89878 41.2996 2.99755C39.6931 2.09633 37.9102 1.64571 35.9314 1.64571C33.9527 1.64571 32.1502 2.09633 30.5437 2.99755C28.9371 3.89878 27.6637 5.13306 26.7429 6.72C25.822 8.30694 25.3518 10.0702 25.3518 12.0294C25.3518 13.9886 25.822 15.7518 26.7429 17.3388C27.6637 18.9257 28.9371 20.16 30.5437 21.0612C32.1502 21.9624 33.9527 22.4131 35.9314 22.4131C37.9102 22.4131 39.6931 21.9624 41.2996 21.0612Z" fill="#00A887"/>
<path d="M73.4106 0.195918V23.8237H72L55.9151 3.31102V23.8237H54.191V0.195918H55.6408L71.7061 20.7086V0.195918H73.4302H73.4106Z" fill="#00A887"/>
<path d="M87.458 1.76327H78.9551V0.21551H97.6849V1.76327H89.1821V23.8237H87.458V1.76327Z" fill="#00A887"/>
<path d="M105.326 22.4131C103.464 21.3747 101.995 19.9249 100.918 18.1029C99.84 16.2808 99.311 14.2433 99.311 11.9902C99.311 9.73714 99.84 7.69959 100.918 5.87755C101.995 4.05551 103.445 2.62531 105.326 1.56735C107.187 0.52898 109.283 0 111.595 0C113.907 0 116.003 0.509388 117.864 1.54776C119.726 2.58612 121.195 4.01633 122.273 5.83837C123.35 7.66041 123.879 9.69796 123.879 11.9706C123.879 14.2433 123.35 16.2808 122.273 18.1029C121.195 19.9249 119.726 21.3551 117.864 22.3935C116.003 23.4318 113.907 23.9412 111.595 23.9412C109.283 23.9412 107.187 23.4122 105.326 22.3739V22.4131ZM116.983 21.0612C118.589 20.16 119.843 18.9257 120.764 17.3388C121.685 15.7518 122.155 13.9886 122.155 12.0294C122.155 10.0702 121.685 8.30694 120.764 6.72C119.843 5.13306 118.589 3.89878 116.983 2.99755C115.376 2.09633 113.593 1.64571 111.615 1.64571C109.636 1.64571 107.833 2.09633 106.227 2.99755C104.62 3.89878 103.347 5.13306 102.426 6.72C101.505 8.30694 101.035 10.0702 101.035 12.0294C101.035 13.9886 101.505 15.7518 102.426 17.3388C103.347 18.9257 104.62 20.16 106.227 21.0612C107.833 21.9624 109.636 22.4131 111.615 22.4131C113.593 22.4131 115.376 21.9624 116.983 21.0612Z" fill="#00A887"/>
<path d="M132.147 21.3943C130.501 19.6702 129.659 17.1233 129.659 13.8122V0.195918H131.383V13.7339C131.383 16.6335 132.049 18.8082 133.381 20.2384C134.713 21.6686 136.633 22.3935 139.141 22.3935C141.649 22.3935 143.549 21.6686 144.882 20.2384C146.214 18.8082 146.88 16.6335 146.88 13.7339V0.195918H148.604V13.7927C148.604 17.1233 147.762 19.6506 146.116 21.3747C144.451 23.0988 142.119 23.9804 139.141 23.9804C136.163 23.9804 133.832 23.1184 132.167 21.3747H132.147V21.3943Z" fill="#00A887"/>
<path d="M182.184 23.0988C180.617 22.511 179.402 21.7273 178.521 20.7869L179.304 19.5135C180.127 20.3951 181.264 21.1004 182.655 21.649C184.065 22.1975 185.535 22.4718 187.102 22.4718C189.355 22.4718 191.04 22.0408 192.196 21.1984C193.352 20.3363 193.92 19.2392 193.92 17.8678C193.92 16.4963 193.607 15.9673 193.019 15.3404C192.411 14.7135 191.647 14.2237 190.766 13.8906C189.864 13.5576 188.65 13.2049 187.122 12.8522C185.398 12.4212 184.007 12.0098 182.949 11.5984C181.91 11.1869 181.009 10.56 180.284 9.71755C179.559 8.8751 179.187 7.73878 179.187 6.32816C179.187 4.91755 179.5 4.13388 180.088 3.17388C180.696 2.21388 181.616 1.4498 182.87 0.901224C184.124 0.333061 185.672 0.0587755 187.553 0.0587755C189.433 0.0587755 190.139 0.254694 191.393 0.626939C192.647 1.01878 193.744 1.52816 194.664 2.17469L194.018 3.56571C193.078 2.91918 192.039 2.4098 190.903 2.07673C189.767 1.74367 188.65 1.56735 187.553 1.56735C185.378 1.56735 183.713 1.99837 182.596 2.88C181.479 3.76163 180.911 4.89796 180.911 6.28898C180.911 7.68 181.224 8.18939 181.812 8.81633C182.42 9.44327 183.184 9.93306 184.065 10.2661C184.967 10.5992 186.201 10.9714 187.749 11.3437C189.473 11.7747 190.864 12.1861 191.902 12.5976C192.94 13.009 193.822 13.6163 194.547 14.4392C195.272 15.262 195.644 16.3592 195.644 17.7698C195.644 19.1804 195.331 19.9641 194.723 20.9045C194.096 21.8449 193.156 22.609 191.863 23.1575C190.589 23.7257 189.002 24 187.141 24C185.28 24 183.752 23.7061 182.204 23.0988H182.184Z" fill="#00A887"/>
<path d="M202.736 0.195918H204.46V22.2563H218.057V23.8041H202.736V0.195918Z" fill="#00A887"/>
<path d="M225.032 0.195918H226.756V23.8237H225.032V0.195918Z" fill="#00A887"/>
<path d="M258.612 23.8237L258.573 3.6049L248.679 20.6694H247.837L237.943 3.66367V23.8041H236.258V0.195918H237.708L248.268 18.4555L258.828 0.195918H260.238L260.278 23.8237H258.593H258.612Z" fill="#00A887"/>
<path d="M155.363 14.5763H163.807C166.315 14.5763 168.235 14.0278 169.567 12.911C170.9 11.7943 171.546 10.2269 171.546 8.18939C171.546 6.15184 170.88 4.5649 169.567 3.46776C168.235 2.35102 166.315 1.80245 163.807 1.80245H155.363V0.254694H163.807C166.766 0.254694 169.097 0.96 170.782 2.35102C172.467 3.76163 173.309 5.70122 173.309 8.18939C173.309 10.6776 172.839 11.618 171.879 12.8914C170.919 14.1649 169.567 15.0465 167.785 15.5755L173.682 23.8237H171.722L166.1 15.9478C165.277 16.0653 164.513 16.1241 163.807 16.1241H157.068V23.8237H155.344V14.5959H155.363V14.5763Z" fill="#00A887"/>
</svg>
