<svg width="218" height="25" viewBox="0 0 218 25" fill="none" xmlns="http://www.w3.org/2000/svg">
<path d="M0 23.8518H1.72958V3.29444L17.8559 23.8518H19.2725V0.181194H17.5429V20.7385L1.44955 0.181194H0V23.8518Z" fill="#E31D93"/>
<path d="M42.0865 23.8518V22.3034H25.7625V23.8518H42.0865ZM42.0865 12.6177V11.0693H25.7625V12.6177H42.0865ZM42.0865 1.74605V0.181194H25.7625V1.72958H42.0865V1.74605Z" fill="#E31D93"/>
<path d="M48.5601 13.8037C48.5601 17.1311 49.3837 19.6678 51.0474 21.4139C52.711 23.1434 55.0336 24.0165 58.0316 24.0165C61.0295 24.0165 63.3521 23.1434 65.0323 21.4139C66.696 19.6843 67.536 17.1476 67.536 13.8037V0.181194H65.8064V13.7378C65.8064 16.6534 65.1476 18.8277 63.8133 20.2608C62.4791 21.7104 60.5683 22.4187 58.0645 22.4187C55.5607 22.4187 53.617 21.6939 52.2828 20.2608C50.9485 18.8113 50.2896 16.6369 50.2896 13.7378V0.181194H48.5601V13.8037Z" fill="#E31D93"/>
<path d="M74.7014 1.74605H83.1846C85.7049 1.74605 87.6321 2.30611 88.9664 3.42622C90.3006 4.54633 90.9595 6.12766 90.9595 8.17021C90.9595 10.2128 90.3006 11.8106 88.9664 12.9142C87.6321 14.0343 85.7049 14.5944 83.1846 14.5944H74.7014V23.8517H76.431V16.1098H83.1846C83.8764 16.1098 84.6506 16.0604 85.4907 15.9451L91.1407 23.8517H93.1009L87.1874 15.5662C88.9664 15.0556 90.3335 14.1496 91.2889 12.8813C92.2443 11.6129 92.722 10.0316 92.722 8.17021C92.722 6.30885 91.8819 3.70625 90.1853 2.30611C88.4887 0.905971 86.1661 0.197666 83.1846 0.197666H74.7014V1.74605Z" fill="#E31D93"/>
<path d="M117.99 17.3452C117.068 18.9266 115.8 20.1784 114.202 21.0844C112.604 21.9904 110.808 22.4351 108.832 22.4351C106.855 22.4351 105.043 21.9904 103.445 21.0844C101.831 20.1784 100.563 18.943 99.6403 17.3452C98.7179 15.7639 98.2567 13.9849 98.2567 12.0247C98.2567 10.0645 98.7179 8.28552 99.6403 6.70419C100.563 5.12286 101.831 3.87097 103.445 2.965C105.06 2.05903 106.855 1.61428 108.832 1.61428C110.808 1.61428 112.604 2.05903 114.202 2.965C115.8 3.87097 117.068 5.10638 117.99 6.70419C118.913 8.28552 119.374 10.0645 119.374 12.0247C119.374 13.9849 118.913 15.7639 117.99 17.3452ZM98.1249 18.1359C99.1956 19.9643 100.662 21.3974 102.539 22.4516C104.417 23.5058 106.509 24.0165 108.832 24.0165C111.154 24.0165 113.246 23.5058 115.124 22.4681C117.002 21.4303 118.468 19.9973 119.539 18.1688C120.609 16.3404 121.153 14.2979 121.153 12.0247C121.153 9.75154 120.609 7.69252 119.539 5.88058C118.468 4.05216 117.002 2.61908 115.124 1.58133C113.246 0.543583 111.154 0.0329444 108.832 0.0329444C106.509 0.0329444 104.417 0.560055 102.539 1.5978C100.662 2.65202 99.1956 4.08511 98.1249 5.91352C97.0542 7.74194 96.5106 9.78449 96.5106 12.0247C96.5106 14.2649 97.0377 16.324 98.1249 18.1359Z" fill="#E31D93"/>
<path d="M125.765 18.1688C126.836 19.9973 128.302 21.4303 130.163 22.4681C132.025 23.5058 134.117 24.0165 136.439 24.0165C138.762 24.0165 139.701 23.7364 141.15 23.1764C142.6 22.6163 143.835 21.7927 144.857 20.7056L143.769 19.5855C141.859 21.4798 139.437 22.4187 136.505 22.4187C133.573 22.4187 132.717 21.9739 131.102 21.0679C129.471 20.162 128.203 18.9266 127.281 17.3288C126.358 15.7474 125.897 13.9684 125.897 12.0082C125.897 10.048 126.358 8.26905 127.281 6.68771C128.203 5.10638 129.471 3.8545 131.102 2.94852C132.717 2.04255 134.528 1.5978 136.505 1.5978C139.454 1.5978 141.875 2.53672 143.769 4.39808L144.857 3.27797C143.835 2.1908 142.616 1.38367 141.167 0.82361C139.717 0.263555 138.152 0 136.439 0C134.726 0 132.025 0.510638 130.163 1.54839C128.302 2.58614 126.836 4.01922 125.765 5.84763C124.695 7.67605 124.151 9.7186 124.151 11.9918C124.151 14.2649 124.678 16.324 125.765 18.1359" fill="#E31D93"/>
<path d="M147.887 23.8518L157.754 2.0755L167.671 23.8518H169.515L158.644 0.181194H156.914L146.026 23.8518H147.887Z" fill="#E31D93"/>
<path d="M173.815 23.8518H189.167V22.2869H175.544V0.181194H173.815V23.8518Z" fill="#E31D93"/>
<path d="M193.581 23.8518H195.278V3.6733L205.178 20.7056H206.034L215.934 3.59094L215.967 23.8518H217.664L217.631 0.181194H216.198L205.623 18.4653L195.047 0.181194H193.581V23.8518Z" fill="#E31D93"/>
</svg>
